<mxfile host="app.diagrams.net" modified="2023-10-21T10:10:46.244Z" agent="Mozilla/5.0 (Windows NT 10.0; Win64; x64) AppleWebKit/537.36 (KHTML, like Gecko) Chrome/118.0.0.0 Safari/537.36" etag="ZPl9bpfL2UjS1eyDHBk3" version="22.0.6" type="google">
  <diagram name="Page-1" id="XO1grhvPlShrZOedC6jB">
    <mxGraphModel grid="1" page="1" gridSize="10" guides="1" tooltips="1" connect="1" arrows="1" fold="1" pageScale="1" pageWidth="850" pageHeight="1100" math="0" shadow="0">
      <root>
        <mxCell id="0" />
        <mxCell id="1" parent="0" />
        <mxCell id="vpiQVhTmyqjBazl-Dy6o-1" value="" style="rounded=1;whiteSpace=wrap;html=1;" vertex="1" parent="1">
          <mxGeometry x="46" y="240" width="130" height="40" as="geometry" />
        </mxCell>
        <mxCell id="vpiQVhTmyqjBazl-Dy6o-2" value="Feasibility Study" style="text;html=1;strokeColor=none;fillColor=none;align=center;verticalAlign=middle;whiteSpace=wrap;rounded=0;" vertex="1" parent="1">
          <mxGeometry x="56" y="245" width="110" height="30" as="geometry" />
        </mxCell>
        <mxCell id="vpiQVhTmyqjBazl-Dy6o-3" value="" style="rounded=1;whiteSpace=wrap;html=1;" vertex="1" parent="1">
          <mxGeometry x="250" y="141" width="130" height="40" as="geometry" />
        </mxCell>
        <mxCell id="vpiQVhTmyqjBazl-Dy6o-4" value="Technical feasibility" style="text;html=1;strokeColor=none;fillColor=none;align=center;verticalAlign=middle;whiteSpace=wrap;rounded=0;" vertex="1" parent="1">
          <mxGeometry x="260" y="146" width="110" height="30" as="geometry" />
        </mxCell>
        <mxCell id="vpiQVhTmyqjBazl-Dy6o-5" value="" style="rounded=1;whiteSpace=wrap;html=1;" vertex="1" parent="1">
          <mxGeometry x="250" y="191" width="130" height="40" as="geometry" />
        </mxCell>
        <mxCell id="vpiQVhTmyqjBazl-Dy6o-6" value="Economical feasibility" style="text;html=1;strokeColor=none;fillColor=none;align=center;verticalAlign=middle;whiteSpace=wrap;rounded=0;" vertex="1" parent="1">
          <mxGeometry x="260" y="196" width="110" height="30" as="geometry" />
        </mxCell>
        <mxCell id="vpiQVhTmyqjBazl-Dy6o-7" value="" style="rounded=1;whiteSpace=wrap;html=1;" vertex="1" parent="1">
          <mxGeometry x="250" y="241" width="130" height="40" as="geometry" />
        </mxCell>
        <mxCell id="vpiQVhTmyqjBazl-Dy6o-8" value="Legal feasibility" style="text;html=1;strokeColor=none;fillColor=none;align=center;verticalAlign=middle;whiteSpace=wrap;rounded=0;" vertex="1" parent="1">
          <mxGeometry x="260" y="246" width="110" height="30" as="geometry" />
        </mxCell>
        <mxCell id="vpiQVhTmyqjBazl-Dy6o-9" value="" style="rounded=1;whiteSpace=wrap;html=1;" vertex="1" parent="1">
          <mxGeometry x="250" y="291" width="130" height="40" as="geometry" />
        </mxCell>
        <mxCell id="vpiQVhTmyqjBazl-Dy6o-10" value="Operational feasibility" style="text;html=1;strokeColor=none;fillColor=none;align=center;verticalAlign=middle;whiteSpace=wrap;rounded=0;" vertex="1" parent="1">
          <mxGeometry x="260" y="296" width="110" height="30" as="geometry" />
        </mxCell>
        <mxCell id="vpiQVhTmyqjBazl-Dy6o-11" value="" style="rounded=1;whiteSpace=wrap;html=1;" vertex="1" parent="1">
          <mxGeometry x="250" y="341" width="130" height="40" as="geometry" />
        </mxCell>
        <mxCell id="vpiQVhTmyqjBazl-Dy6o-12" value="Schedule feasibility" style="text;html=1;strokeColor=none;fillColor=none;align=center;verticalAlign=middle;whiteSpace=wrap;rounded=0;" vertex="1" parent="1">
          <mxGeometry x="260" y="346" width="110" height="30" as="geometry" />
        </mxCell>
        <mxCell id="vpiQVhTmyqjBazl-Dy6o-15" value="&lt;b&gt;Feasibility Study&lt;/b&gt;" style="swimlane;fontStyle=0;childLayout=stackLayout;horizontal=1;startSize=30;horizontalStack=0;resizeParent=1;resizeParentMax=0;resizeLast=0;collapsible=1;marginBottom=0;whiteSpace=wrap;html=1;" vertex="1" parent="1">
          <mxGeometry x="430" y="146" width="300" height="230" as="geometry" />
        </mxCell>
        <mxCell id="vpiQVhTmyqjBazl-Dy6o-16" value="&lt;b&gt;Technical feasibility:&lt;/b&gt; We check Resources like hardware,&amp;nbsp;software, developer &amp;amp; designer.&amp;nbsp;" style="text;strokeColor=none;fillColor=none;align=left;verticalAlign=middle;spacingLeft=4;spacingRight=4;overflow=hidden;points=[[0,0.5],[1,0.5]];portConstraint=eastwest;rotatable=0;whiteSpace=wrap;html=1;" vertex="1" parent="vpiQVhTmyqjBazl-Dy6o-15">
          <mxGeometry y="30" width="300" height="30" as="geometry" />
        </mxCell>
        <mxCell id="vpiQVhTmyqjBazl-Dy6o-17" value="&lt;b&gt;Economical feasibility:&lt;/b&gt; We will calculate the total cost of project. Can we hire people and technology in this budget?&amp;nbsp;" style="text;strokeColor=none;fillColor=none;align=left;verticalAlign=middle;spacingLeft=4;spacingRight=4;overflow=hidden;points=[[0,0.5],[1,0.5]];portConstraint=eastwest;rotatable=0;whiteSpace=wrap;html=1;" vertex="1" parent="vpiQVhTmyqjBazl-Dy6o-15">
          <mxGeometry y="60" width="300" height="50" as="geometry" />
        </mxCell>
        <mxCell id="vpiQVhTmyqjBazl-Dy6o-18" value="&lt;b&gt;Legal feasibility:&lt;/b&gt; Every country has rules for software development. e.g. islamic laws in Pakistan" style="text;strokeColor=none;fillColor=none;align=left;verticalAlign=middle;spacingLeft=4;spacingRight=4;overflow=hidden;points=[[0,0.5],[1,0.5]];portConstraint=eastwest;rotatable=0;whiteSpace=wrap;html=1;" vertex="1" parent="vpiQVhTmyqjBazl-Dy6o-15">
          <mxGeometry y="110" width="300" height="40" as="geometry" />
        </mxCell>
        <mxCell id="vpiQVhTmyqjBazl-Dy6o-19" value="&lt;b&gt;Operational feasibility:&lt;/b&gt;&amp;nbsp;how much easy product will operate. CAn the user properly use it?" style="text;strokeColor=none;fillColor=none;align=left;verticalAlign=middle;spacingLeft=4;spacingRight=4;overflow=hidden;points=[[0,0.5],[1,0.5]];portConstraint=eastwest;rotatable=0;whiteSpace=wrap;html=1;" vertex="1" parent="vpiQVhTmyqjBazl-Dy6o-15">
          <mxGeometry y="150" width="300" height="40" as="geometry" />
        </mxCell>
        <mxCell id="vpiQVhTmyqjBazl-Dy6o-20" value="&lt;b&gt;Schedule feasibility:&lt;/b&gt;&amp;nbsp;Is it possible to develop it in given time frame." style="text;strokeColor=none;fillColor=none;align=left;verticalAlign=middle;spacingLeft=4;spacingRight=4;overflow=hidden;points=[[0,0.5],[1,0.5]];portConstraint=eastwest;rotatable=0;whiteSpace=wrap;html=1;" vertex="1" parent="vpiQVhTmyqjBazl-Dy6o-15">
          <mxGeometry y="190" width="300" height="40" as="geometry" />
        </mxCell>
        <mxCell id="vpiQVhTmyqjBazl-Dy6o-21" value="" style="endArrow=classic;startArrow=classic;html=1;rounded=0;entryX=0;entryY=0.5;entryDx=0;entryDy=0;exitX=0;exitY=0.5;exitDx=0;exitDy=0;" edge="1" parent="1" source="vpiQVhTmyqjBazl-Dy6o-11" target="vpiQVhTmyqjBazl-Dy6o-3">
          <mxGeometry width="50" height="50" relative="1" as="geometry">
            <mxPoint x="169" y="296" as="sourcePoint" />
            <mxPoint x="219" y="246" as="targetPoint" />
            <Array as="points">
              <mxPoint x="200" y="360" />
              <mxPoint x="200" y="260" />
              <mxPoint x="200" y="161" />
            </Array>
          </mxGeometry>
        </mxCell>
        <mxCell id="vpiQVhTmyqjBazl-Dy6o-22" value="" style="endArrow=classic;html=1;rounded=0;entryX=0;entryY=0.5;entryDx=0;entryDy=0;" edge="1" parent="1" target="vpiQVhTmyqjBazl-Dy6o-5">
          <mxGeometry width="50" height="50" relative="1" as="geometry">
            <mxPoint x="200" y="211" as="sourcePoint" />
            <mxPoint x="236" y="260" as="targetPoint" />
          </mxGeometry>
        </mxCell>
        <mxCell id="vpiQVhTmyqjBazl-Dy6o-23" value="" style="endArrow=classic;html=1;rounded=0;entryX=0;entryY=0.5;entryDx=0;entryDy=0;" edge="1" parent="1" target="vpiQVhTmyqjBazl-Dy6o-7">
          <mxGeometry width="50" height="50" relative="1" as="geometry">
            <mxPoint x="200" y="260" as="sourcePoint" />
            <mxPoint x="229" y="273" as="targetPoint" />
          </mxGeometry>
        </mxCell>
        <mxCell id="vpiQVhTmyqjBazl-Dy6o-24" value="" style="endArrow=classic;html=1;rounded=0;entryX=0;entryY=0.5;entryDx=0;entryDy=0;" edge="1" parent="1" target="vpiQVhTmyqjBazl-Dy6o-9">
          <mxGeometry width="50" height="50" relative="1" as="geometry">
            <mxPoint x="200" y="311" as="sourcePoint" />
            <mxPoint x="229" y="310.63" as="targetPoint" />
          </mxGeometry>
        </mxCell>
        <mxCell id="vpiQVhTmyqjBazl-Dy6o-25" value="" style="endArrow=none;html=1;rounded=0;exitX=1;exitY=0.5;exitDx=0;exitDy=0;" edge="1" parent="1" source="vpiQVhTmyqjBazl-Dy6o-1">
          <mxGeometry width="50" height="50" relative="1" as="geometry">
            <mxPoint x="145" y="310" as="sourcePoint" />
            <mxPoint x="200" y="260" as="targetPoint" />
          </mxGeometry>
        </mxCell>
      </root>
    </mxGraphModel>
  </diagram>
</mxfile>
